<svg width="180" height="180" viewBox="0 0 180 180" fill="none" xmlns="http://www.w3.org/2000/svg">
<g clip-path="url(#clip0_69_22439)">
<path d="M116.25 82.5C122.463 82.5 127.5 77.4632 127.5 71.25C127.5 65.0368 122.463 60 116.25 60C110.037 60 105 65.0368 105 71.25C105 77.4632 110.037 82.5 116.25 82.5Z" fill="#68A9ED"/>
<path d="M63.75 82.5C69.9632 82.5 75 77.4632 75 71.25C75 65.0368 69.9632 60 63.75 60C57.5368 60 52.5 65.0368 52.5 71.25C52.5 77.4632 57.5368 82.5 63.75 82.5Z" fill="#68A9ED"/>
<path d="M89.925 15C48.525 15 15 48.6 15 90C15 131.4 48.525 165 89.925 165C131.4 165 165 131.4 165 90C165 48.6 131.4 15 89.925 15ZM90 150C56.85 150 30 123.15 30 90C30 56.85 56.85 30 90 30C123.15 30 150 56.85 150 90C150 123.15 123.15 150 90 150ZM123.075 104.175C120.45 102.525 116.925 103.35 115.35 105.975C109.8 114.75 100.35 120 90 120C79.65 120 70.2 114.75 64.65 105.9C63 103.275 59.55 102.45 56.925 104.1C54.3 105.75 53.475 109.2 55.125 111.825C62.775 124.05 75.75 131.25 90 131.25C104.25 131.25 117.225 123.975 124.875 111.9C126.525 109.275 125.7 105.825 123.075 104.175Z" fill="#68A9ED"/>
</g>
<defs>
<clipPath id="clip0_69_22439">
<rect width="180" height="180" fill="white"/>
</clipPath>
</defs>
</svg>
