<svg width="62" height="32" viewBox="0 0 62 32" fill="none" xmlns="http://www.w3.org/2000/svg">
<path d="M36.9094 5.63029L18.0284 0.775994C16.4106 0.364276 14.6184 0.424041 13.0781 0.955291L8.63156 2.47599C7.55625 2.84787 7.47875 3.87717 8.48625 4.32209L22.7172 10.5975L13.175 13.9377L7.53688 12.2178C6.69406 11.9588 5.71562 11.9721 4.89219 12.2576L1.77281 13.3268C0.871875 13.6389 0.629687 14.4424 1.28844 14.967L8.37 20.6315C8.96094 21.1029 9.82312 21.3752 10.7241 21.3752H24.0637C24.5481 21.3752 25.0228 21.2955 25.4491 21.1494L51.8862 12.0916C56.3909 10.5444 59.8784 7.8881 61.6512 4.65412C62.5716 2.98068 60.76 1.18771 58.1444 1.18771H52.5837C50.6269 1.18771 48.6894 1.50646 46.9456 2.1174L36.9094 5.63029ZM0 29.8752C0 31.0506 1.38531 32.0002 3.1 32.0002H58.9C60.6147 32.0002 62 31.0506 62 29.8752C62 28.6998 60.6147 27.7502 58.9 27.7502H3.1C1.38531 27.7502 0 28.6998 0 29.8752Z" fill="#68A9ED"/>
</svg>
