<svg width="55" height="56" viewBox="0 0 55 56" fill="none" xmlns="http://www.w3.org/2000/svg">
<path d="M55 28C55 43.464 42.6878 56 27.5 56C12.3122 56 0 43.464 0 28C0 12.536 12.3122 0 27.5 0C42.6878 0 55 12.536 55 28Z" fill="white"/>
<g clip-path="url(#clip0_0_1)">
<rect width="21" height="22" transform="translate(17 18)" fill="white"/>
<path d="M38 29.2492C38 35.3293 33.8301 39.6562 27.6721 39.6562C21.768 39.6562 17 34.8953 17 29C17 23.1047 21.768 18.3438 27.6721 18.3438C30.5467 18.3438 32.9652 19.3965 34.8285 21.1324L31.9238 23.9211C28.124 20.2602 21.058 23.0102 21.058 29C21.058 32.7168 24.0316 35.7289 27.6721 35.7289C31.898 35.7289 33.4816 32.7039 33.7311 31.1355H27.6721V27.4703H37.8322C37.9311 28.016 38 28.5402 38 29.2492Z" fill="#FF3838"/>
</g>
<defs>
<clipPath id="clip0_0_1">
<rect width="21" height="22" fill="white" transform="translate(17 18)"/>
</clipPath>
</defs>
</svg>
