<svg width="55" height="56" viewBox="0 0 55 56" fill="none" xmlns="http://www.w3.org/2000/svg">
<ellipse cx="27.5" cy="28" rx="27.5" ry="28" fill="#FFCF54"/>
<path d="M43 27.1429C43 33.2982 36.0617 38.2857 27.5009 38.2857C25.2547 38.2857 23.1236 37.9429 21.1983 37.3268C20.4779 37.7929 19.3033 38.4304 17.9108 38.9661C16.4578 39.5232 14.7081 40 12.9705 40C12.577 40 12.2258 39.7911 12.0744 39.4696C11.9231 39.1482 12.0078 38.7839 12.2803 38.5375L12.2985 38.5214C12.3166 38.5054 12.3408 38.4839 12.3772 38.4464C12.4438 38.3821 12.5467 38.2804 12.6738 38.1411C12.9221 37.8732 13.255 37.4768 13.5941 36.9839C14.1995 36.0946 14.7747 34.9268 14.8897 33.6143C13.0734 31.7929 12.0018 29.5589 12.0018 27.1429C12.0018 20.9875 18.9401 16 27.5009 16C36.0617 16 43 20.9875 43 27.1429Z" fill="#433232"/>
</svg>
