<svg width="24" height="36" viewBox="0 0 24 36" fill="none" xmlns="http://www.w3.org/2000/svg">
<g clip-path="url(#clip0_160_7390)">
<path d="M22 24.3005V6.07516C22 4.4045 21.1 3.0376 20 3.0376H8C6.9 3.0376 6 4.4045 6 6.07516V24.3005C6 25.9712 6.9 27.3381 8 27.3381H20C21.1 27.3381 22 25.9712 22 24.3005ZM11.4 19.0303L13.03 22.3413L15.61 17.4508C15.81 17.0711 16.19 17.0711 16.39 17.4508L19.35 23.0703C19.61 23.5715 19.38 24.3005 18.96 24.3005H9C8.59 24.3005 8.35 23.5867 8.6 23.0855L10.6 19.0303C10.8 18.6355 11.2 18.6355 11.4 19.0303ZM2 10.6315V30.3756C2 32.0463 2.9 33.4132 4 33.4132H17C17.55 33.4132 18 32.7297 18 31.8944C18 31.0591 17.55 30.3756 17 30.3756H5C4.45 30.3756 4 29.6922 4 28.8568V10.6315C4 9.79616 3.55 9.11271 3 9.11271C2.45 9.11271 2 9.79616 2 10.6315Z" fill="#9F9595"/>
</g>
<defs>
<clipPath id="clip0_160_7390">
<rect width="24" height="36.4507" fill="white"/>
</clipPath>
</defs>
</svg>
